<svg xmlns="http://www.w3.org/2000/svg" xmlns:xlink="http://www.w3.org/1999/xlink" width="150" zoomAndPan="magnify" viewBox="0 0 112.5 43.499998" height="58" preserveAspectRatio="xMidYMid meet" version="1.0"><defs><g/></defs><g fill="#000000" fill-opacity="1"><g transform="translate(3.902479, 19.948514)"><g><path d="M -0.296875 2.214844 L -0.296875 2.394531 C 2.910156 2.394531 5.539062 0.414062 5.539062 -2.511719 L 5.539062 -11.035156 C 5.539062 -12.007812 6.203125 -12.597656 7.28125 -12.597656 L 7.28125 -12.730469 L 0.738281 -12.730469 L 0.738281 -12.597656 C 1.816406 -12.597656 2.480469 -12.007812 2.480469 -11.035156 L 2.480469 -4.503906 L 2.496094 -1.550781 C 2.511719 1.003906 2.273438 2.214844 -0.296875 2.214844 Z M -0.296875 2.214844 "/></g></g></g><g fill="#000000" fill-opacity="1"><g transform="translate(11.917189, 19.948514)"><g><path d="M 0.738281 -0.132812 L 0.738281 0 L 4.222656 0 L 4.222656 -0.132812 L 4.179688 -0.132812 C 3.929688 -0.148438 2.660156 -0.296875 3.78125 -2.761719 L 4.269531 -3.824219 L 9.171875 -3.824219 L 10.148438 -1.683594 C 10.796875 -0.265625 9.71875 -0.148438 9.421875 -0.132812 L 9.347656 -0.132812 L 9.347656 0 L 15.347656 0 L 15.347656 -0.132812 L 15.273438 -0.132812 C 14.976562 -0.148438 13.839844 -0.28125 13.203125 -1.683594 L 8.167969 -12.730469 L 6.648438 -9.363281 L 3.632812 -2.761719 C 2.644531 -0.5625 1.492188 -0.191406 0.988281 -0.132812 Z M 9.113281 -3.957031 L 4.328125 -3.957031 L 6.71875 -9.203125 Z M 9.113281 -3.957031 "/></g></g></g><g fill="#000000" fill-opacity="1"><g transform="translate(27.990894, 19.948514)"><g><path d="M 2.777344 -10.589844 L 12.097656 0 L 12.246094 0 L 12.246094 -11.09375 C 12.289062 -12.671875 13.929688 -12.585938 13.929688 -12.585938 L 13.929688 -12.730469 L 10.429688 -12.730469 L 10.429688 -12.597656 C 10.429688 -12.585938 12.066406 -12.671875 12.113281 -11.09375 L 12.113281 -4.550781 L 4.890625 -12.730469 L 0.738281 -12.730469 L 0.738281 -12.585938 C 1.789062 -12.585938 2.378906 -12.050781 2.40625 -10.796875 L 2.40625 -1.625 C 2.378906 -0.265625 1.136719 -0.148438 0.8125 -0.132812 L 0.738281 -0.132812 L 0.738281 0 L 4.222656 0 L 4.222656 -0.132812 L 4.152344 -0.132812 C 3.8125 -0.148438 2.585938 -0.265625 2.539062 -1.625 L 2.539062 -10.839844 Z M 2.777344 -10.589844 "/></g></g></g><g fill="#000000" fill-opacity="1"><g transform="translate(42.647627, 19.948514)"><g/></g></g><g fill="#000000" fill-opacity="1"><g transform="translate(51.503662, 19.948514)"><g><path d="M 0.753906 -0.132812 L 0.738281 0 L 7.28125 0 L 7.28125 -0.132812 C 6.203125 -0.148438 5.539062 -0.722656 5.539062 -1.699219 L 5.539062 -6.085938 L 7.664062 -6.085938 C 9.527344 -6.085938 11.773438 -7.503906 11.773438 -9.453125 C 11.773438 -11.832031 9.527344 -12.730469 7.132812 -12.730469 L 0.738281 -12.730469 L 0.738281 -12.597656 L 0.914062 -12.597656 C 1.359375 -12.585938 2.480469 -12.390625 2.480469 -11.035156 L 2.480469 -1.699219 C 2.480469 -0.738281 1.832031 -0.148438 0.753906 -0.132812 Z M 7.132812 -6.234375 L 5.539062 -6.234375 L 5.539062 -12.597656 L 7.132812 -12.597656 C 8.199219 -12.597656 8.757812 -11.238281 8.757812 -9.453125 C 8.757812 -7.652344 8.199219 -6.234375 7.132812 -6.234375 Z M 7.132812 -6.234375 "/></g></g></g><g fill="#000000" fill-opacity="1"><g transform="translate(64.005432, 19.948514)"><g><path d="M 0.738281 -0.132812 L 0.738281 0 L 4.222656 0 L 4.222656 -0.132812 L 4.179688 -0.132812 C 3.929688 -0.148438 2.660156 -0.296875 3.78125 -2.761719 L 4.269531 -3.824219 L 9.171875 -3.824219 L 10.148438 -1.683594 C 10.796875 -0.265625 9.71875 -0.148438 9.421875 -0.132812 L 9.347656 -0.132812 L 9.347656 0 L 15.347656 0 L 15.347656 -0.132812 L 15.273438 -0.132812 C 14.976562 -0.148438 13.839844 -0.28125 13.203125 -1.683594 L 8.167969 -12.730469 L 6.648438 -9.363281 L 3.632812 -2.761719 C 2.644531 -0.5625 1.492188 -0.191406 0.988281 -0.132812 Z M 9.113281 -3.957031 L 4.328125 -3.957031 L 6.71875 -9.203125 Z M 9.113281 -3.957031 "/></g></g></g><g fill="#000000" fill-opacity="1"><g transform="translate(80.079136, 19.948514)"><g><path d="M 7.59375 0.101562 C 10.25 0.101562 12.480469 -1.285156 12.480469 -4.03125 L 12.480469 -11.105469 C 12.480469 -12.039062 13.117188 -12.597656 14.148438 -12.597656 L 14.148438 -12.730469 L 10.664062 -12.730469 L 10.664062 -12.597656 C 11.726562 -12.597656 12.347656 -12.039062 12.347656 -11.105469 L 12.347656 -4.03125 C 12.347656 -1.046875 9.601562 -0.0742188 8.167969 -0.0742188 C 5.847656 -0.0742188 5.433594 -3.160156 5.433594 -5.257812 L 5.433594 -11.136719 C 5.433594 -12.007812 6.027344 -12.597656 7.105469 -12.597656 L 7.105469 -12.730469 L 0.738281 -12.730469 L 0.738281 -12.597656 C 1.800781 -12.597656 2.421875 -12.007812 2.421875 -11.035156 L 2.421875 -4.136719 C 2.421875 -1.714844 5.125 0.101562 7.59375 0.101562 Z M 7.59375 0.101562 "/></g></g></g><g fill="#000000" fill-opacity="1"><g transform="translate(94.957274, 19.948514)"><g><path d="M 0.738281 -0.132812 L 0.738281 0 L 11.433594 0 L 12.40625 -3.339844 L 12.273438 -3.339844 C 11.566406 -1.195312 9.820312 -0.132812 7.28125 -0.132812 C 6.203125 -0.132812 5.539062 -0.722656 5.539062 -1.699219 L 5.539062 -11.035156 C 5.539062 -12.007812 6.203125 -12.597656 7.28125 -12.597656 L 7.28125 -12.730469 L 0.738281 -12.730469 L 0.738281 -12.597656 C 1.816406 -12.597656 2.480469 -12.007812 2.480469 -11.035156 L 2.480469 -1.699219 C 2.480469 -0.722656 1.816406 -0.132812 0.738281 -0.132812 Z M 0.738281 -0.132812 "/></g></g></g><g fill="#171717" fill-opacity="1"><g transform="translate(2.117914, 31.564985)"><g><path d="M 1.238281 0 L 5.75 0 C 8.773438 0 10.847656 -1.585938 10.847656 -3.804688 C 10.847656 -6.023438 8.773438 -7.609375 5.75 -7.609375 L 1.238281 -7.609375 Z M 1.816406 -0.476562 L 1.816406 -7.140625 L 5.75 -7.140625 C 8.238281 -7.140625 10.28125 -5.75 10.28125 -3.804688 C 10.28125 -1.871094 8.238281 -0.476562 5.75 -0.476562 Z M 1.816406 -0.476562 "/></g></g></g><g fill="#171717" fill-opacity="1"><g transform="translate(20.227353, 31.564985)"><g><path d="M 1.238281 0 L 9.335938 0 L 9.335938 -0.476562 L 1.792969 -0.476562 L 1.792969 -3.664062 L 7.457031 -3.664062 L 7.457031 -4.097656 L 1.792969 -4.097656 L 1.792969 -7.128906 L 9.164062 -7.128906 L 9.164062 -7.609375 L 1.238281 -7.609375 Z M 1.238281 0 "/></g></g></g><g fill="#171717" fill-opacity="1"><g transform="translate(36.81537, 31.564985)"><g><path d="M 5.042969 0.128906 C 7.511719 0.128906 9 -0.738281 9 -1.976562 C 9 -3.078125 7.96875 -3.675781 5.164062 -4.078125 C 2.707031 -4.433594 1.683594 -4.890625 1.683594 -5.71875 C 1.683594 -6.53125 2.957031 -7.261719 4.871094 -7.261719 C 6.433594 -7.261719 7.652344 -6.945312 8.390625 -6.652344 L 8.390625 -7.175781 C 7.621094 -7.457031 6.414062 -7.730469 4.914062 -7.730469 C 2.652344 -7.730469 1.097656 -6.847656 1.097656 -5.707031 C 1.097656 -4.554688 2.238281 -4 4.914062 -3.621094 C 7.457031 -3.25 8.414062 -2.78125 8.414062 -1.945312 C 8.414062 -1 6.957031 -0.324219 5.097656 -0.324219 C 3.828125 -0.324219 2.097656 -0.597656 0.835938 -1.140625 L 0.675781 -0.640625 C 1.816406 -0.175781 3.804688 0.128906 5.042969 0.128906 Z M 5.042969 0.128906 "/></g></g></g><g fill="#171717" fill-opacity="1"><g transform="translate(53.001295, 31.564985)"><g><path d="M 1.292969 0 L 1.890625 0 L 1.890625 -7.609375 L 1.292969 -7.609375 Z M 1.292969 0 "/></g></g></g><g fill="#171717" fill-opacity="1"><g transform="translate(62.612497, 31.564985)"><g><path d="M 6.230469 0.128906 C 9.011719 0.128906 11.25 -1.324219 11.402344 -3.53125 L 12.664062 -3.53125 L 12.664062 -3.976562 L 6.566406 -3.976562 L 6.566406 -3.53125 L 10.792969 -3.53125 C 10.683594 -1.585938 8.730469 -0.347656 6.230469 -0.347656 C 3.554688 -0.347656 1.457031 -1.621094 1.457031 -3.695312 C 1.457031 -5.71875 3.585938 -7.25 6.390625 -7.25 C 8 -7.25 9.511719 -6.78125 10.238281 -6.21875 L 10.609375 -6.621094 C 9.792969 -7.21875 8.597656 -7.730469 6.378906 -7.730469 C 3.25 -7.730469 0.847656 -5.925781 0.847656 -3.695312 C 0.847656 -1.402344 3.21875 0.128906 6.230469 0.128906 Z M 6.230469 0.128906 "/></g></g></g><g fill="#171717" fill-opacity="1"><g transform="translate(82.123815, 31.564985)"><g><path d="M 10.066406 0.128906 L 10.328125 0.128906 L 10.328125 -7.609375 L 9.792969 -7.609375 L 9.792969 -0.792969 L 9.71875 -0.792969 L 1.511719 -7.730469 L 1.238281 -7.730469 L 1.238281 0 L 1.792969 0 L 1.792969 -6.828125 L 1.859375 -6.828125 Z M 10.066406 0.128906 "/></g></g></g><g fill="#171717" fill-opacity="1"><g transform="translate(100.091971, 31.564985)"><g><path d="M 5.042969 0.128906 C 7.511719 0.128906 9 -0.738281 9 -1.976562 C 9 -3.078125 7.96875 -3.675781 5.164062 -4.078125 C 2.707031 -4.433594 1.683594 -4.890625 1.683594 -5.71875 C 1.683594 -6.53125 2.957031 -7.261719 4.871094 -7.261719 C 6.433594 -7.261719 7.652344 -6.945312 8.390625 -6.652344 L 8.390625 -7.175781 C 7.621094 -7.457031 6.414062 -7.730469 4.914062 -7.730469 C 2.652344 -7.730469 1.097656 -6.847656 1.097656 -5.707031 C 1.097656 -4.554688 2.238281 -4 4.914062 -3.621094 C 7.457031 -3.25 8.414062 -2.78125 8.414062 -1.945312 C 8.414062 -1 6.957031 -0.324219 5.097656 -0.324219 C 3.828125 -0.324219 2.097656 -0.597656 0.835938 -1.140625 L 0.675781 -0.640625 C 1.816406 -0.175781 3.804688 0.128906 5.042969 0.128906 Z M 5.042969 0.128906 "/></g></g></g></svg>